<svg width="20" height="20" viewBox="0 0 20 20" fill="none" xmlns="http://www.w3.org/2000/svg">
<path fill-rule="evenodd" clip-rule="evenodd" d="M9.16664 2.65862C9.2242 2.47609 9.33846 2.31666 9.49281 2.20349C9.64717 2.09031 9.83358 2.0293 10.025 2.0293C10.2164 2.0293 10.4028 2.09031 10.5571 2.20349C10.7115 2.31666 10.8257 2.47609 10.8833 2.65862L12.4333 7.42529H17.4333C17.6315 7.41779 17.8268 7.47541 17.9892 7.58932C18.1516 7.70324 18.2723 7.86719 18.3327 8.05614C18.3932 8.24508 18.3902 8.44862 18.324 8.63567C18.2579 8.82271 18.1324 8.98297 17.9666 9.09196L13.9083 12.0336L15.4583 16.8086C15.5196 16.9905 15.5212 17.1872 15.4627 17.3701C15.4043 17.5529 15.2889 17.7122 15.1335 17.8249C14.9781 17.9375 14.7907 17.9975 14.5988 17.996C14.4068 17.9946 14.2204 17.9319 14.0666 17.817L9.99998 14.842L5.94164 17.792C5.7879 17.9069 5.60145 17.9696 5.40951 17.971C5.21758 17.9725 5.03022 17.9125 4.87479 17.7999C4.71936 17.6872 4.604 17.5279 4.54557 17.3451C4.48713 17.1622 4.48868 16.9655 4.54998 16.7836L6.09998 12.0086L2.04164 9.06696C1.87588 8.95797 1.75035 8.79771 1.68424 8.61067C1.61813 8.42363 1.61508 8.22008 1.67554 8.03114C1.736 7.84219 1.85666 7.67824 2.01907 7.56432C2.18149 7.45041 2.37673 7.39279 2.57498 7.40029H7.57498L9.16664 2.65862Z" stroke="#C3D4E9" stroke-width="1.5" stroke-linecap="round" stroke-linejoin="round"/>
</svg>
